<svg width="90" height="16" viewBox="0 0 90 16" fill="none" xmlns="http://www.w3.org/2000/svg">
<path d="M0.191406 15V0.859375H5.73828C8.96094 0.859375 10.7969 2.83203 10.7969 5.625C10.7969 8.45703 8.92188 10.3906 5.66016 10.3906H3.12109V15H0.191406ZM3.12109 8.02734H5.19141C6.92969 8.02734 7.76953 7.05078 7.76953 5.625C7.76953 4.21875 6.92969 3.26172 5.19141 3.26172H3.12109V8.02734ZM11.8523 15V0.859375H17.3992C20.6219 0.859375 22.4578 2.67578 22.4578 5.46875C22.4578 7.40234 21.5691 8.80859 19.9578 9.49219L22.9656 15H19.7234L17.0281 9.98047H14.782V15H11.8523ZM14.782 7.59766H16.8523C18.5906 7.59766 19.4305 6.875 19.4305 5.46875C19.4305 4.04297 18.5906 3.26172 16.8523 3.26172H14.782V7.59766ZM30.2125 8.02734V10.332H23.7672V8.02734H30.2125ZM35.7211 15.1758C33.2992 15.1758 31.4047 13.2422 31.4047 9.70703C31.4047 6.07422 33.3773 4.25781 35.7211 4.25781C37.4984 4.25781 38.3383 5.3125 38.7289 6.17188H38.8266V0.859375H41.7172V15H38.8656V13.3008H38.7289C38.3188 14.1797 37.4398 15.1758 35.7211 15.1758ZM36.6195 12.8711C38.0648 12.8711 38.8852 11.6016 38.8852 9.6875C38.8852 7.77344 38.0648 6.5625 36.6195 6.5625C35.1547 6.5625 34.3734 7.83203 34.3734 9.6875C34.3734 11.5625 35.1547 12.8711 36.6195 12.8711ZM48.0461 15.2148C44.8039 15.2148 42.8117 13.1055 42.8117 9.74609C42.8117 6.46484 44.8234 4.25781 47.9289 4.25781C50.7219 4.25781 52.9094 6.01562 52.9094 9.62891V10.4492H45.6633C45.6633 12.0508 46.6203 13.0469 48.1047 13.0469C49.0812 13.0469 49.7844 12.6172 50.0773 11.9727H52.8312C52.4211 13.9258 50.6633 15.2148 48.0461 15.2148ZM45.6633 8.63281H50.175C50.175 7.34375 49.2766 6.42578 47.9875 6.42578C46.6594 6.42578 45.7121 7.41211 45.6633 8.63281ZM56.8164 0.859375V15H53.9258V0.859375H56.8164ZM58.2625 15V4.39453H61.1531V15H58.2625ZM59.7078 3.00781C58.8289 3.00781 58.1258 2.34375 58.1258 1.54297C58.1258 0.722656 58.8289 0.0585938 59.7078 0.0585938C60.5672 0.0585938 61.2703 0.722656 61.2703 1.54297C61.2703 2.34375 60.5672 3.00781 59.7078 3.00781ZM72.443 4.39453L68.7125 15H65.4703L61.7594 4.39453H64.8063L67.0328 12.0117H67.15L69.3766 4.39453H72.443ZM77.5023 15.2148C74.2602 15.2148 72.268 13.1055 72.268 9.74609C72.268 6.46484 74.2797 4.25781 77.3852 4.25781C80.1781 4.25781 82.3656 6.01562 82.3656 9.62891V10.4492H75.1195C75.1195 12.0508 76.0766 13.0469 77.5609 13.0469C78.5375 13.0469 79.2406 12.6172 79.5336 11.9727H82.2875C81.8773 13.9258 80.1195 15.2148 77.5023 15.2148ZM75.1195 8.63281H79.6312C79.6312 7.34375 78.7328 6.42578 77.4437 6.42578C76.1156 6.42578 75.1684 7.41211 75.1195 8.63281ZM83.382 15V4.39453H86.175V6.23047H86.2922C86.6828 4.92188 87.6594 4.23828 88.8508 4.23828C89.1438 4.23828 89.5148 4.27734 89.7688 4.33594V6.91406C89.4953 6.83594 88.9484 6.75781 88.5383 6.75781C87.2297 6.75781 86.2727 7.67578 86.2727 8.96484V15H83.382Z" fill="white"/>
</svg>
