<svg width="32" height="32" viewBox="0 0 32 32" fill="none" xmlns="http://www.w3.org/2000/svg">
<path fill-rule="evenodd" clip-rule="evenodd" d="M2.66699 7.11119C2.66699 5.93245 3.13524 4.80199 3.96874 3.9685C4.80223 3.135 5.9327 2.66675 7.11144 2.66675H10.4448C11.6235 2.66675 12.754 3.135 13.5875 3.9685C14.421 4.80199 14.8892 5.93245 14.8892 7.11119V10.4445C14.8892 11.6233 14.421 12.7537 13.5875 13.5872C12.754 14.4207 11.6235 14.889 10.4448 14.889H7.11144C5.9327 14.889 4.80223 14.4207 3.96874 13.5872C3.13524 12.7537 2.66699 11.6233 2.66699 10.4445V7.11119ZM17.1114 7.11119C17.1114 5.93245 17.5797 4.80199 18.4132 3.9685C19.2467 3.135 20.3771 2.66675 21.5559 2.66675H24.8892C26.068 2.66675 27.1984 3.135 28.0319 3.9685C28.8654 4.80199 29.3337 5.93245 29.3337 7.11119V10.4445C29.3337 11.6233 28.8654 12.7537 28.0319 13.5872C27.1984 14.4207 26.068 14.889 24.8892 14.889H21.5559C20.3771 14.889 19.2467 14.4207 18.4132 13.5872C17.5797 12.7537 17.1114 11.6233 17.1114 10.4445V7.11119ZM2.66699 21.5556C2.66699 20.3769 3.13524 19.2464 3.96874 18.4129C4.80223 17.5794 5.9327 17.1112 7.11144 17.1112H10.4448C11.6235 17.1112 12.754 17.5794 13.5875 18.4129C14.421 19.2464 14.8892 20.3769 14.8892 21.5556V24.889C14.8892 26.0677 14.421 27.1982 13.5875 28.0317C12.754 28.8652 11.6235 29.3334 10.4448 29.3334H7.11144C5.9327 29.3334 4.80223 28.8652 3.96874 28.0317C3.13524 27.1982 2.66699 26.0677 2.66699 24.889V21.5556ZM17.1114 21.5556C17.1114 20.3769 17.5797 19.2464 18.4132 18.4129C19.2467 17.5794 20.3771 17.1112 21.5559 17.1112H24.8892C26.068 17.1112 27.1984 17.5794 28.0319 18.4129C28.8654 19.2464 29.3337 20.3769 29.3337 21.5556V24.889C29.3337 26.0677 28.8654 27.1982 28.0319 28.0317C27.1984 28.8652 26.068 29.3334 24.8892 29.3334H21.5559C20.3771 29.3334 19.2467 28.8652 18.4132 28.0317C17.5797 27.1982 17.1114 26.0677 17.1114 24.889V21.5556Z" fill="#0C0C0D"/>
</svg>
