<svg width="32" height="32" viewBox="0 0 32 32" fill="none" xmlns="http://www.w3.org/2000/svg">
<path fill-rule="evenodd" clip-rule="evenodd" d="M15.9998 2.66675C12.5041 2.66675 9.06738 2.92641 5.70696 3.42675C2.86031 3.84979 0.888672 6.37924 0.888672 9.21795V17.9966C0.888672 20.8353 2.86031 23.3648 5.70696 23.7878C6.9691 23.976 8.24131 24.1292 9.52359 24.2488V30.0181C9.52378 30.2343 9.58719 30.4457 9.7058 30.6254C9.82442 30.8052 9.99292 30.9452 10.19 31.028C10.3871 31.1107 10.604 31.1324 10.8133 31.0902C11.0225 31.0481 11.2148 30.944 11.3657 30.7912L17.3871 24.6893C17.4894 24.5873 17.6264 24.5288 17.7699 24.526C20.6569 24.453 23.5007 24.205 26.2926 23.7878C29.1393 23.3648 31.1109 20.8368 31.1109 17.9966V9.21795C31.1109 6.37778 29.1393 3.84979 26.2926 3.42675C22.8845 2.9197 19.4444 2.66569 15.9998 2.66675ZM10.603 11.9662C10.1736 11.9662 9.76175 12.1391 9.45812 12.4469C9.15449 12.7546 8.98391 13.172 8.98391 13.6073C8.98391 14.0425 9.15449 14.4599 9.45812 14.7677C9.76175 15.0755 10.1736 15.2484 10.603 15.2484C11.0324 15.2484 11.4442 15.0755 11.7478 14.7677C12.0514 14.4599 12.222 14.0425 12.222 13.6073C12.222 13.172 12.0514 12.7546 11.7478 12.4469C11.4442 12.1391 11.0324 11.9662 10.603 11.9662ZM14.3807 13.6073C14.3807 13.172 14.5513 12.7546 14.8549 12.4469C15.1586 12.1391 15.5704 11.9662 15.9998 11.9662C16.4292 11.9662 16.841 12.1391 17.1446 12.4469C17.4483 12.7546 17.6188 13.172 17.6188 13.6073C17.6188 14.0425 17.4483 14.4599 17.1446 14.7677C16.841 15.0755 16.4292 15.2484 15.9998 15.2484C15.5704 15.2484 15.1586 15.0755 14.8549 14.7677C14.5513 14.4599 14.3807 14.0425 14.3807 13.6073ZM21.3966 11.9662C20.9672 11.9662 20.5554 12.1391 20.2518 12.4469C19.9481 12.7546 19.7776 13.172 19.7776 13.6073C19.7776 14.0425 19.9481 14.4599 20.2518 14.7677C20.5554 15.0755 20.9672 15.2484 21.3966 15.2484C21.826 15.2484 22.2378 15.0755 22.5414 14.7677C22.8451 14.4599 23.0157 14.0425 23.0157 13.6073C23.0157 13.172 22.8451 12.7546 22.5414 12.4469C22.2378 12.1391 21.826 11.9662 21.3966 11.9662Z" fill="#0C0C0D"/>
</svg>
