<svg width="24" height="24" viewBox="0 0 24 24" fill="none" xmlns="http://www.w3.org/2000/svg">
<g clip-path="url(#clip0_442_143)">
<g clip-path="url(#clip1_442_143)">
<path d="M15.8642 10.4145C15.8642 11.4545 15.4557 12.4508 14.7304 13.1845C14.0053 13.918 13.023 14.329 12 14.329C10.977 14.329 9.99479 13.918 9.26967 13.1845C8.54435 12.4508 8.13586 11.4545 8.13586 10.4145C8.13586 9.37447 8.54435 8.37818 9.26967 7.6445C9.99479 6.91101 10.977 6.5 12 6.5C13.023 6.5 14.0053 6.91101 14.7304 7.6445C15.4557 8.37818 15.8642 9.37447 15.8642 10.4145ZM14.4129 12.847C15.0516 12.2009 15.4095 11.3258 15.4095 10.4145C15.4095 9.5032 15.0516 8.62808 14.4129 7.98196C13.7739 7.33565 12.9061 6.9715 12 6.9715C11.0939 6.9715 10.2261 7.33565 9.58716 7.98196C8.94841 8.62808 8.59058 9.50319 8.59058 10.4145C8.59058 11.3258 8.94841 12.2009 9.58716 12.847C10.2261 13.4933 11.0939 13.8575 12 13.8575C12.9061 13.8575 13.7739 13.4933 14.4129 12.847ZM12 17.2626C10.1493 17.2626 8.3739 17.9985 7.05636 19.3096C5.73901 20.6206 4.98483 22.4016 4.95469 24.2682C4.9525 24.4037 4.84383 24.502 4.72374 24.5C4.6035 24.498 4.49784 24.396 4.50003 24.2603C4.53223 22.2664 5.33791 20.3663 6.74154 18.9695C8.14498 17.5728 10.0337 16.7912 12 16.7912C13.9663 16.7912 15.855 17.5728 17.2585 18.9695C18.6621 20.3663 19.4678 22.2664 19.5 24.2603C19.5022 24.396 19.3965 24.498 19.2763 24.5C19.1562 24.502 19.0475 24.4037 19.0453 24.2682C19.0152 22.4016 18.261 20.6206 16.9436 19.3096C15.6261 17.9985 13.8507 17.2626 12 17.2626Z" stroke="#434344" stroke-linecap="round" stroke-linejoin="round"/>
</g>
</g>
<rect x="0.75" y="0.75" width="22.5" height="22.5" rx="11.25" stroke="#434344" stroke-width="1.5"/>
<defs>
<clipPath id="clip0_442_143">
<rect width="24" height="24" rx="12" fill="white"/>
</clipPath>
<clipPath id="clip1_442_143">
<rect width="24" height="24" fill="white"/>
</clipPath>
</defs>
</svg>
