<svg width="32" height="32" viewBox="0 0 32 32" fill="none" xmlns="http://www.w3.org/2000/svg">
<path d="M15.3715 2H15.3356L14.9773 2.07C14.189 2.16333 13.4187 2.37917 12.6662 2.7175C11.9138 3.05583 11.2509 3.505 10.6776 4.065C9.69824 4.92833 9.01745 5.99 8.63525 7.25C8.42027 7.95 8.32472 8.685 8.34861 9.455C8.37249 10.225 8.51582 10.96 8.77858 11.66C9.18466 12.71 9.80573 13.62 10.6418 14.39L11.1076 14.81L8.13362 19.535C7.51255 19.5117 6.97509 19.5933 6.52123 19.78C5.80461 20.0833 5.26715 20.55 4.90884 21.18C4.74163 21.53 4.63413 21.8917 4.58636 22.265C4.53858 22.6383 4.56247 23.0117 4.65802 23.385C4.84912 24.085 5.24326 24.645 5.84044 25.065C6.19875 25.2983 6.59289 25.4675 7.02286 25.5725C7.45283 25.6775 7.8828 25.7008 8.31277 25.6425C8.74275 25.5842 9.1548 25.4383 9.54894 25.205C9.94308 24.9717 10.2715 24.68 10.5343 24.33C10.8209 23.9333 10.9941 23.4783 11.0538 22.965C11.1136 22.4517 11.0479 21.9733 10.8568 21.53C10.8329 21.4133 10.7493 21.25 10.606 21.04L10.4985 20.83L14.7265 14.11C14.8698 13.9 14.9654 13.7367 15.0132 13.62L14.6548 13.515C14.4399 13.4683 14.2846 13.4217 14.189 13.375C13.6396 13.1417 13.144 12.8208 12.7021 12.4125C12.2601 12.0042 11.9198 11.5433 11.6809 11.03C11.2748 10.19 11.1673 9.315 11.3584 8.405C11.454 7.86833 11.657 7.36667 11.9675 6.9C12.2781 6.43333 12.6483 6.03667 13.0783 5.71C13.9621 5.08 14.9415 4.765 16.0164 4.765C16.6614 4.74167 17.2884 4.8525 17.8975 5.0975C18.5067 5.3425 19.0382 5.69833 19.492 6.165C19.8981 6.53833 20.2146 6.9875 20.4415 7.5125C20.6685 8.0375 20.7939 8.56833 20.8178 9.105C20.8178 9.50167 20.7461 9.99167 20.6028 10.575L23.1109 11.24L23.3976 11.275C23.732 10.2717 23.8156 9.26833 23.6484 8.265C23.5529 7.495 23.32 6.75417 22.9497 6.0425C22.5795 5.33083 22.1077 4.70667 21.5344 4.17C20.5311 3.19 19.3009 2.53667 17.8438 2.21C17.7005 2.16333 17.4855 2.11667 17.1988 2.07L16.6972 2H15.3715ZM16.0164 6.34C15.6103 6.34 15.2043 6.42167 14.7982 6.585C14.3921 6.74833 14.0278 6.9875 13.7053 7.3025C13.3828 7.6175 13.1499 7.985 13.0066 8.405C12.8155 8.87167 12.7678 9.385 12.8633 9.945C12.935 10.365 13.1022 10.7617 13.3649 11.135C13.6277 11.5083 13.9621 11.8 14.3682 12.01C14.9415 12.36 15.6103 12.5117 16.3747 12.465C16.4464 12.5583 16.5061 12.6517 16.5539 12.745L20.5669 19.43C20.6386 19.57 20.7103 19.675 20.7819 19.745C21.4269 19.1383 22.1256 18.7242 22.878 18.5025C23.6305 18.2808 24.4068 18.24 25.2071 18.38C26.0073 18.52 26.706 18.8233 27.3032 19.29C28.0676 19.8733 28.5871 20.5908 28.8618 21.4425C29.1365 22.2942 29.1425 23.1517 28.8797 24.015C28.6886 24.6683 28.3482 25.2517 27.8585 25.765C27.3689 26.2783 26.7896 26.6633 26.1207 26.92C25.3802 27.2233 24.586 27.3225 23.738 27.2175C22.89 27.1125 22.1316 26.8267 21.4627 26.36C21.3672 26.29 21.2119 26.1733 20.9969 26.01L20.8178 25.8C20.7222 25.87 20.5908 25.9867 20.4236 26.15L18.7396 27.76C19.289 28.2967 19.91 28.7458 20.6028 29.1075C21.2955 29.4692 22.0241 29.72 22.7885 29.86L23.5767 30H24.9742L25.9774 29.825C27.5062 29.5217 28.82 28.8217 29.9188 27.725C30.4443 27.2117 30.8803 26.6225 31.2266 25.9575C31.573 25.2925 31.8059 24.5983 31.9254 23.875C32.0448 23.035 32.0209 22.2008 31.8537 21.3725C31.6865 20.5442 31.3879 19.7917 30.9579 19.115C30.5279 18.4383 30.0024 17.8433 29.3814 17.33C28.7603 16.8167 28.0795 16.4083 27.339 16.105C26.5268 15.7783 25.6848 15.5917 24.8129 15.545C23.941 15.4983 23.0871 15.58 22.251 15.79L21.6419 15.965L18.7396 11.17C19.0501 10.7267 19.2412 10.295 19.3129 9.875C19.4323 9.12833 19.277 8.42833 18.8471 7.775C18.4649 7.19167 17.9393 6.78333 17.2705 6.55C16.8644 6.41 16.4464 6.34 16.0164 6.34ZM5.9121 15.58C4.52664 15.8833 3.33228 16.5017 2.32901 17.435C1.20631 18.4617 0.477746 19.6867 0.143324 21.11L0 21.95V23.245L0.0716618 23.63C0.119436 23.9333 0.167211 24.1667 0.214986 24.33C0.382196 25.0533 0.674816 25.7417 1.09284 26.395C1.51087 27.0483 2.01848 27.62 2.61566 28.11C3.81002 29.0667 5.18354 29.6383 6.73621 29.825C7.64393 29.9183 8.55165 29.8658 9.45936 29.6675C10.3671 29.4692 11.2031 29.1367 11.9675 28.67C13.2336 27.8767 14.1652 26.815 14.7623 25.485C14.9296 25.0883 15.0968 24.5633 15.264 23.91C15.4073 23.8867 15.6223 23.8867 15.9089 23.91L20.3878 23.98C20.7222 23.98 20.9611 23.9917 21.1044 24.015C21.3672 24.4817 21.6658 24.8433 22.0002 25.1C22.3346 25.3567 22.7108 25.5433 23.1289 25.66C23.5469 25.7767 23.9709 25.8233 24.4009 25.8C25.0697 25.73 25.6669 25.4967 26.1924 25.1C26.8374 24.61 27.2196 23.98 27.339 23.21C27.3868 22.8133 27.3689 22.4283 27.2852 22.055C27.2016 21.6817 27.0404 21.3317 26.8015 21.005C26.4193 20.4917 25.9296 20.1183 25.3325 19.885C24.9264 19.7217 24.5024 19.6458 24.0605 19.6575C23.6185 19.6692 23.1945 19.7567 22.7885 19.92C22.1196 20.2 21.606 20.6317 21.2477 21.215L21.1402 21.425C20.8058 21.425 20.3042 21.4133 19.6353 21.39L15.5865 21.355C15.2281 21.3317 14.7146 21.32 14.0457 21.32L12.2542 21.285L12.3617 21.88C12.5528 22.8833 12.3975 23.8283 11.8959 24.715C11.5614 25.345 11.0837 25.87 10.4626 26.29C9.84156 26.71 9.16077 26.9667 8.42027 27.06C7.58421 27.2 6.74816 27.1125 5.9121 26.7975C5.07605 26.4825 4.39526 25.9867 3.86974 25.31C3.2009 24.4933 2.87842 23.5717 2.9023 22.545C2.92619 21.6817 3.2009 20.8767 3.72642 20.13C4.03695 19.6867 4.41915 19.3133 4.87301 19.01C5.32686 18.7067 5.81655 18.485 6.34207 18.345L6.66455 18.24L5.9121 15.58Z" fill="#0C0C0D"/>
</svg>
