<svg width="44" height="44" viewBox="0 0 44 44" fill="none" xmlns="http://www.w3.org/2000/svg">
<path d="M12.0359 22.322C11.9669 22.1146 11.9669 21.8904 12.0359 21.683C13.4229 17.51 17.3599 14.5 21.9999 14.5C26.6379 14.5 30.5729 17.507 31.9629 21.678C32.0329 21.885 32.0329 22.109 31.9629 22.317C30.5769 26.49 26.6399 29.5 21.9999 29.5C17.3619 29.5 13.4259 26.493 12.0359 22.322Z" stroke="#757575" stroke-width="1.5" stroke-linecap="round" stroke-linejoin="round"/>
<path d="M25 22C25 22.7956 24.6839 23.5587 24.1213 24.1213C23.5587 24.6839 22.7956 25 22 25C21.2044 25 20.4413 24.6839 19.8787 24.1213C19.3161 23.5587 19 22.7956 19 22C19 21.2044 19.3161 20.4413 19.8787 19.8787C20.4413 19.3161 21.2044 19 22 19C22.7956 19 23.5587 19.3161 24.1213 19.8787C24.6839 20.4413 25 21.2044 25 22Z" stroke="#757575" stroke-width="1.5" stroke-linecap="round" stroke-linejoin="round"/>
</svg>
