<svg width="20" height="18" viewBox="0 0 20 18" fill="none" xmlns="http://www.w3.org/2000/svg">
<path fill-rule="evenodd" clip-rule="evenodd" d="M10 2.09147e-06C7.68667 2.09147e-06 5.41238 0.164315 3.18857 0.480941C1.30476 0.748643 0 2.34931 0 4.14568V9.70094C0 11.4973 1.30476 13.098 3.18857 13.3657C4.02381 13.4848 4.86571 13.5817 5.71429 13.6574V17.3083C5.71441 17.4451 5.75637 17.5789 5.83486 17.6926C5.91336 17.8063 6.02487 17.895 6.15531 17.9473C6.28575 17.9997 6.42927 18.0134 6.56775 17.9867C6.70622 17.9601 6.83344 17.8942 6.93333 17.7975L10.9181 13.9362C10.9858 13.8716 11.0765 13.8346 11.1714 13.8328C13.0819 13.7866 14.9638 13.6297 16.8114 13.3657C18.6952 13.098 20 11.4982 20 9.70094V4.14568C20 2.34839 18.6952 0.748643 16.8114 0.480941C14.5561 0.160072 12.2795 -0.000668814 10 2.09147e-06ZM6.42857 5.88482C6.14441 5.88482 5.87189 5.99423 5.67096 6.18898C5.47003 6.38374 5.35714 6.64789 5.35714 6.92331C5.35714 7.19874 5.47003 7.46288 5.67096 7.65764C5.87189 7.8524 6.14441 7.96181 6.42857 7.96181C6.71273 7.96181 6.98525 7.8524 7.18619 7.65764C7.38712 7.46288 7.5 7.19874 7.5 6.92331C7.5 6.64789 7.38712 6.38374 7.18619 6.18898C6.98525 5.99423 6.71273 5.88482 6.42857 5.88482ZM8.92857 6.92331C8.92857 6.64789 9.04145 6.38374 9.24239 6.18898C9.44332 5.99423 9.71584 5.88482 10 5.88482C10.2842 5.88482 10.5567 5.99423 10.7576 6.18898C10.9585 6.38374 11.0714 6.64789 11.0714 6.92331C11.0714 7.19874 10.9585 7.46288 10.7576 7.65764C10.5567 7.8524 10.2842 7.96181 10 7.96181C9.71584 7.96181 9.44332 7.8524 9.24239 7.65764C9.04145 7.46288 8.92857 7.19874 8.92857 6.92331ZM13.5714 5.88482C13.2873 5.88482 13.0147 5.99423 12.8138 6.18898C12.6129 6.38374 12.5 6.64789 12.5 6.92331C12.5 7.19874 12.6129 7.46288 12.8138 7.65764C13.0147 7.8524 13.2873 7.96181 13.5714 7.96181C13.8556 7.96181 14.1281 7.8524 14.329 7.65764C14.53 7.46288 14.6429 7.19874 14.6429 6.92331C14.6429 6.64789 14.53 6.38374 14.329 6.18898C14.1281 5.99423 13.8556 5.88482 13.5714 5.88482Z" fill="#6317E5"/>
</svg>
