<svg width="18" height="20" viewBox="0 0 18 20" fill="none" xmlns="http://www.w3.org/2000/svg">
<path d="M13.4097 4.87918C13.4097 6.0396 12.9459 7.15313 12.1192 7.97463C11.2925 8.79623 10.1705 9.25836 9.00002 9.25836C7.8295 9.25836 6.70754 8.79623 5.8808 7.97463C5.05417 7.15313 4.59034 6.0396 4.59034 4.87918C4.59034 3.71876 5.05417 2.60523 5.8808 1.78373C6.70754 0.962129 7.8295 0.5 9.00002 0.5C10.1705 0.5 11.2925 0.962129 12.1192 1.78373C12.9459 2.60523 13.4097 3.71876 13.4097 4.87918ZM11.6669 2.22446L11.3145 2.57911L11.6669 2.22446C10.9591 1.52102 9.99972 1.12639 9.00002 1.12639C8.00033 1.12639 7.04096 1.52102 6.33313 2.22446C5.62519 2.928 5.2269 3.88287 5.2269 4.87918C5.2269 5.87549 5.62519 6.83036 6.33313 7.5339C7.04096 8.23734 8.00033 8.63197 9.00002 8.63197C9.99972 8.63197 10.9591 8.23734 11.6669 7.5339C12.3749 6.83036 12.7731 5.87549 12.7731 4.87918C12.7731 3.88287 12.3749 2.928 11.6669 2.22446ZM9 12.5008C6.93743 12.5008 4.95689 13.3064 3.48564 14.7448C2.0143 16.1834 1.17025 18.1396 1.13652 20.1919C1.13373 20.3619 0.991773 20.5029 0.813035 20.5C0.634375 20.4971 0.49725 20.3517 0.500044 20.1817C0.536438 17.9671 1.44723 15.8548 3.03699 14.3005C4.62686 12.7461 6.76842 11.8744 9 11.8744C11.2316 11.8744 13.3731 12.7461 14.963 14.3005C16.5528 15.8548 17.4636 17.9671 17.5 20.1817C17.5027 20.3517 17.3656 20.4971 17.187 20.5C17.0082 20.5029 16.8663 20.3619 16.8635 20.1919C16.8298 18.1396 15.9857 16.1834 14.5144 14.7448C13.0431 13.3064 11.0626 12.5008 9 12.5008Z" fill="#C3C6CC" stroke="#C3C6CC" stroke-linecap="round" stroke-linejoin="round"/>
</svg>
