<svg width="32" height="32" viewBox="0 0 32 32" fill="none" xmlns="http://www.w3.org/2000/svg">
<path d="M30.002 1.99801C29.2917 1.28786 28.3284 0.888916 27.3241 0.888916C26.3197 0.888916 25.3564 1.28786 24.6461 1.99801L22.9768 3.66738L28.3326 9.02319L30.002 7.35383C30.7121 6.64356 31.1111 5.68031 31.1111 4.67592C31.1111 3.67154 30.7121 2.70828 30.002 1.99801ZM26.8017 10.554L21.4459 5.19823L9.32608 17.3181C8.43563 18.2081 7.78106 19.306 7.42153 20.5125L6.26726 24.3865C6.21154 24.5735 6.20738 24.772 6.25523 24.9611C6.30309 25.1503 6.40118 25.3229 6.53912 25.4609C6.67706 25.5988 6.84972 25.6969 7.03883 25.7447C7.22795 25.7926 7.42648 25.7884 7.61343 25.7327L11.4875 24.5784C12.694 24.2189 13.7919 23.5643 14.6819 22.6739L26.8017 10.554Z" fill="#0C0C0D"/>
<path d="M6.14147 6.22217C4.98416 6.22217 3.87425 6.68191 3.05591 7.50025C2.23757 8.31859 1.77783 9.4285 1.77783 10.5858V25.8585C1.77783 27.0158 2.23757 28.1257 3.05591 28.9441C3.87425 29.7624 4.98416 30.2222 6.14147 30.2222H21.4142C22.5715 30.2222 23.6814 29.7624 24.4998 28.9441C25.3181 28.1257 25.7778 27.0158 25.7778 25.8585V18.2222C25.7778 17.9328 25.6629 17.6554 25.4583 17.4508C25.2537 17.2462 24.9763 17.1313 24.6869 17.1313C24.3976 17.1313 24.1201 17.2462 23.9155 17.4508C23.7109 17.6554 23.596 17.9328 23.596 18.2222V25.8585C23.596 26.4372 23.3661 26.9921 22.957 27.4013C22.5478 27.8105 21.9929 28.0403 21.4142 28.0403H6.14147C5.56281 28.0403 5.00786 27.8105 4.59869 27.4013C4.18952 26.9921 3.95965 26.4372 3.95965 25.8585V10.5858C3.95965 10.0072 4.18952 9.4522 4.59869 9.04303C5.00786 8.63386 5.56281 8.40399 6.14147 8.40399H13.7778C14.0672 8.40399 14.3446 8.28905 14.5492 8.08447C14.7538 7.87988 14.8687 7.6024 14.8687 7.31308C14.8687 7.02375 14.7538 6.74627 14.5492 6.54169C14.3446 6.3371 14.0672 6.22217 13.7778 6.22217H6.14147Z" fill="#0C0C0D"/>
</svg>
